<mxfile host="Electron" modified="2023-09-24T14:27:51.320Z" agent="Mozilla/5.0 (X11; Linux x86_64) AppleWebKit/537.36 (KHTML, like Gecko) draw.io/21.7.5 Chrome/114.0.5735.289 Electron/25.8.1 Safari/537.36" etag="Pom0_ITMg-ZJ7XxGf53Y" version="21.7.5" type="device">
  <diagram id="C5RBs43oDa-KdzZeNtuy" name="Page-1">
    <mxGraphModel dx="1434" dy="791" grid="1" gridSize="10" guides="1" tooltips="1" connect="1" arrows="1" fold="1" page="1" pageScale="1" pageWidth="827" pageHeight="1169" math="0" shadow="0">
      <root>
        <mxCell id="WIyWlLk6GJQsqaUBKTNV-0" />
        <mxCell id="WIyWlLk6GJQsqaUBKTNV-1" parent="WIyWlLk6GJQsqaUBKTNV-0" />
        <mxCell id="pepBr8N-2c0vEtSGyqda-0" value="&lt;font style=&quot;font-size: 14px;&quot;&gt;Начало&lt;/font&gt;" style="strokeWidth=2;html=1;shape=mxgraph.flowchart.terminator;whiteSpace=wrap;" vertex="1" parent="WIyWlLk6GJQsqaUBKTNV-1">
          <mxGeometry x="326" y="50" width="176" height="80" as="geometry" />
        </mxCell>
        <mxCell id="pepBr8N-2c0vEtSGyqda-5" value="&lt;font style=&quot;font-size: 14px;&quot;&gt;Расстояние Левенштейна&amp;nbsp;&lt;br&gt;Входные данные: строки&amp;nbsp; S&lt;sub&gt;1&amp;nbsp;&lt;/sub&gt;и S&lt;sub&gt;2&amp;nbsp; &amp;nbsp; &amp;nbsp; &amp;nbsp; &amp;nbsp; &amp;nbsp; &amp;nbsp;&lt;/sub&gt;&amp;nbsp;&amp;nbsp;&lt;br&gt;Выходные данные: число&lt;sub&gt;&amp;nbsp; &amp;nbsp;&lt;/sub&gt;&amp;nbsp; &lt;sub&gt;&amp;nbsp;&amp;nbsp;&amp;nbsp;&amp;nbsp;&lt;/sub&gt;&lt;/font&gt;" style="strokeWidth=2;html=1;shape=mxgraph.flowchart.annotation_1;align=left;pointerEvents=1;" vertex="1" parent="WIyWlLk6GJQsqaUBKTNV-1">
          <mxGeometry x="550" y="40" width="50" height="100" as="geometry" />
        </mxCell>
        <mxCell id="pepBr8N-2c0vEtSGyqda-8" value="" style="endArrow=none;dashed=1;html=1;rounded=0;entryX=0;entryY=0.5;entryDx=0;entryDy=0;entryPerimeter=0;exitX=1;exitY=0.5;exitDx=0;exitDy=0;exitPerimeter=0;" edge="1" parent="WIyWlLk6GJQsqaUBKTNV-1" source="pepBr8N-2c0vEtSGyqda-0" target="pepBr8N-2c0vEtSGyqda-5">
          <mxGeometry width="50" height="50" relative="1" as="geometry">
            <mxPoint x="390" y="230" as="sourcePoint" />
            <mxPoint x="440" y="180" as="targetPoint" />
          </mxGeometry>
        </mxCell>
        <mxCell id="pepBr8N-2c0vEtSGyqda-12" value="&lt;font style=&quot;font-size: 14px;&quot;&gt;l&lt;sub&gt;1&amp;nbsp;&lt;/sub&gt;&amp;nbsp;= len(S&lt;sub style=&quot;&quot;&gt;1&lt;/sub&gt;)&lt;br&gt;l&lt;sub&gt;2&amp;nbsp;&lt;/sub&gt;&amp;nbsp;= len(S&lt;sub&gt;2&lt;/sub&gt;)&lt;br&gt;&lt;/font&gt;" style="shape=process;whiteSpace=wrap;html=1;backgroundOutline=1;" vertex="1" parent="WIyWlLk6GJQsqaUBKTNV-1">
          <mxGeometry x="337" y="170" width="154" height="70" as="geometry" />
        </mxCell>
        <mxCell id="pepBr8N-2c0vEtSGyqda-13" value="" style="endArrow=none;html=1;rounded=0;entryX=0.5;entryY=1;entryDx=0;entryDy=0;entryPerimeter=0;exitX=0.5;exitY=0;exitDx=0;exitDy=0;" edge="1" parent="WIyWlLk6GJQsqaUBKTNV-1" source="pepBr8N-2c0vEtSGyqda-12" target="pepBr8N-2c0vEtSGyqda-0">
          <mxGeometry width="50" height="50" relative="1" as="geometry">
            <mxPoint x="430" y="340" as="sourcePoint" />
            <mxPoint x="480" y="290" as="targetPoint" />
          </mxGeometry>
        </mxCell>
        <mxCell id="pepBr8N-2c0vEtSGyqda-14" value="&lt;font style=&quot;font-size: 14px;&quot;&gt;prevRow = int(0)[l&lt;sub&gt;2&lt;/sub&gt;&amp;nbsp;+ 1]&lt;br&gt;currRow = int(0)[l&lt;sub&gt;2&lt;/sub&gt;&amp;nbsp;+ 1]&lt;/font&gt;" style="rounded=0;whiteSpace=wrap;html=1;" vertex="1" parent="WIyWlLk6GJQsqaUBKTNV-1">
          <mxGeometry x="334" y="280" width="160" height="70" as="geometry" />
        </mxCell>
        <mxCell id="pepBr8N-2c0vEtSGyqda-15" value="" style="endArrow=none;html=1;rounded=0;entryX=0.5;entryY=1;entryDx=0;entryDy=0;exitX=0.5;exitY=0;exitDx=0;exitDy=0;" edge="1" parent="WIyWlLk6GJQsqaUBKTNV-1" source="pepBr8N-2c0vEtSGyqda-14" target="pepBr8N-2c0vEtSGyqda-12">
          <mxGeometry width="50" height="50" relative="1" as="geometry">
            <mxPoint x="430" y="450" as="sourcePoint" />
            <mxPoint x="480" y="400" as="targetPoint" />
          </mxGeometry>
        </mxCell>
        <mxCell id="pepBr8N-2c0vEtSGyqda-17" value="&lt;font style=&quot;font-size: 14px;&quot;&gt;Цикл i от 0 до l&lt;/font&gt;&lt;font style=&quot;&quot;&gt;&lt;span style=&quot;font-size: 11.6667px;&quot;&gt;&lt;sub&gt;2&lt;/sub&gt;&lt;/span&gt;&lt;span style=&quot;font-size: 14px;&quot;&gt;&amp;nbsp;+ 1&lt;/span&gt;&lt;/font&gt;" style="strokeWidth=2;html=1;shape=mxgraph.flowchart.loop_limit;whiteSpace=wrap;" vertex="1" parent="WIyWlLk6GJQsqaUBKTNV-1">
          <mxGeometry x="337" y="390" width="154" height="70" as="geometry" />
        </mxCell>
        <mxCell id="pepBr8N-2c0vEtSGyqda-18" value="" style="endArrow=none;html=1;rounded=0;entryX=0.5;entryY=1;entryDx=0;entryDy=0;exitX=0.5;exitY=0;exitDx=0;exitDy=0;exitPerimeter=0;" edge="1" parent="WIyWlLk6GJQsqaUBKTNV-1" source="pepBr8N-2c0vEtSGyqda-17" target="pepBr8N-2c0vEtSGyqda-14">
          <mxGeometry width="50" height="50" relative="1" as="geometry">
            <mxPoint x="210" y="440" as="sourcePoint" />
            <mxPoint x="260" y="390" as="targetPoint" />
          </mxGeometry>
        </mxCell>
        <mxCell id="pepBr8N-2c0vEtSGyqda-19" value="&lt;span style=&quot;font-size: 14px;&quot;&gt;prevRow[i] = i&amp;nbsp;&lt;/span&gt;" style="rounded=0;whiteSpace=wrap;html=1;" vertex="1" parent="WIyWlLk6GJQsqaUBKTNV-1">
          <mxGeometry x="334" y="500" width="160" height="70" as="geometry" />
        </mxCell>
        <mxCell id="pepBr8N-2c0vEtSGyqda-20" value="" style="endArrow=none;html=1;rounded=0;entryX=0.5;entryY=1;entryDx=0;entryDy=0;entryPerimeter=0;exitX=0.5;exitY=0;exitDx=0;exitDy=0;" edge="1" parent="WIyWlLk6GJQsqaUBKTNV-1" source="pepBr8N-2c0vEtSGyqda-19" target="pepBr8N-2c0vEtSGyqda-17">
          <mxGeometry width="50" height="50" relative="1" as="geometry">
            <mxPoint x="210" y="440" as="sourcePoint" />
            <mxPoint x="260" y="390" as="targetPoint" />
          </mxGeometry>
        </mxCell>
        <mxCell id="pepBr8N-2c0vEtSGyqda-22" value="&lt;font style=&quot;font-size: 14px;&quot;&gt;&amp;nbsp;Конец цикла по i&lt;/font&gt;" style="strokeWidth=2;html=1;shape=mxgraph.flowchart.loop_limit;whiteSpace=wrap;direction=west;" vertex="1" parent="WIyWlLk6GJQsqaUBKTNV-1">
          <mxGeometry x="337" y="620" width="154" height="70" as="geometry" />
        </mxCell>
        <mxCell id="pepBr8N-2c0vEtSGyqda-23" value="" style="endArrow=none;html=1;rounded=0;exitX=0.5;exitY=1;exitDx=0;exitDy=0;entryX=0.5;entryY=1;entryDx=0;entryDy=0;entryPerimeter=0;" edge="1" parent="WIyWlLk6GJQsqaUBKTNV-1" source="pepBr8N-2c0vEtSGyqda-19" target="pepBr8N-2c0vEtSGyqda-22">
          <mxGeometry width="50" height="50" relative="1" as="geometry">
            <mxPoint x="210" y="680" as="sourcePoint" />
            <mxPoint x="260" y="630" as="targetPoint" />
          </mxGeometry>
        </mxCell>
        <mxCell id="pepBr8N-2c0vEtSGyqda-55" value="&lt;font style=&quot;font-size: 14px;&quot;&gt;A&lt;/font&gt;" style="ellipse;whiteSpace=wrap;html=1;aspect=fixed;" vertex="1" parent="WIyWlLk6GJQsqaUBKTNV-1">
          <mxGeometry x="374" y="740" width="80" height="80" as="geometry" />
        </mxCell>
        <mxCell id="pepBr8N-2c0vEtSGyqda-56" value="" style="endArrow=none;html=1;rounded=0;entryX=0.5;entryY=0;entryDx=0;entryDy=0;entryPerimeter=0;" edge="1" parent="WIyWlLk6GJQsqaUBKTNV-1" source="pepBr8N-2c0vEtSGyqda-55" target="pepBr8N-2c0vEtSGyqda-22">
          <mxGeometry width="50" height="50" relative="1" as="geometry">
            <mxPoint x="210" y="950" as="sourcePoint" />
            <mxPoint x="260" y="900" as="targetPoint" />
          </mxGeometry>
        </mxCell>
      </root>
    </mxGraphModel>
  </diagram>
</mxfile>
